<svg xmlns="http://www.w3.org/2000/svg" xmlns:xlink="http://www.w3.org/1999/xlink" width="298" height="298" viewBox="0 0 298 298">
  <defs>
    <clipPath id="clip-discrod">
      <rect width="298" height="298"/>
    </clipPath>
  </defs>
  <g id="discrod" clip-path="url(#clip-discrod)">
    <path id="Subtraction_3" data-name="Subtraction 3" d="M-4429-1007h-132a69.559,69.559,0,0,1-27.247-5.5,69.765,69.765,0,0,1-22.25-15,69.758,69.758,0,0,1-15-22.251A69.555,69.555,0,0,1-4631-1077v-132a69.553,69.553,0,0,1,5.5-27.247,69.762,69.762,0,0,1,15-22.25,69.767,69.767,0,0,1,22.25-15A69.56,69.56,0,0,1-4561-1279h132a69.565,69.565,0,0,1,27.248,5.5,69.77,69.77,0,0,1,22.25,15,69.761,69.761,0,0,1,15,22.25A69.553,69.553,0,0,1-4359-1209v132a69.555,69.555,0,0,1-5.5,27.247,69.758,69.758,0,0,1-15,22.251,69.764,69.764,0,0,1-22.25,15A69.564,69.564,0,0,1-4429-1007Zm-94.946-210.333a.918.918,0,0,0-.246.033c-.732.111-1.494.215-2.166.307-1.263.172-2.568.351-3.846.588a91.666,91.666,0,0,0-16.956,4.965,103.855,103.855,0,0,0-20.757,11.124,11.091,11.091,0,0,0-3.433,3.491,151.5,151.5,0,0,0-9.35,19.164,207.735,207.735,0,0,0-7.035,20.068c-2.29,7.793-4.224,15.792-5.749,23.776-.884,4.6-1.659,9.285-2.3,13.926-.408,2.956-.74,5.587-1.015,8.044-.3,2.627-.562,5.295-.788,7.93-.127,1.473-.243,2.948-.355,4.374q-.086,1.1-.174,2.2a2.642,2.642,0,0,0,.579,2.316,92.7,92.7,0,0,0,7.478,7.2,80.875,80.875,0,0,0,21.613,13.059,95.912,95.912,0,0,0,19.3,5.662,75.547,75.547,0,0,0,11.086,1.306,1.056,1.056,0,0,0,.136.008,1.108,1.108,0,0,0,.924-.493c2.267-3.05,4.572-6.124,6.85-9.137.163-.207.256-.362.217-.495-.035-.117-.169-.21-.436-.3a95.038,95.038,0,0,1-25.3-13.49,96.786,96.786,0,0,1-8.993-7.682,46.127,46.127,0,0,1-4.628-4.965l-.242-.182a.236.236,0,0,1,.082-.015.24.24,0,0,1,.213.131c.139.074.277.157.41.246A110.532,110.532,0,0,0-4553-1094.4a108.2,108.2,0,0,0,16.45,6.686,127.03,127.03,0,0,0,23.628,4.927c4.357.5,8.372.79,12.271.9,1.684.052,3.394.078,5.082.078,3.821,0,7.692-.135,11.5-.4,4.43-.324,8.774-.824,12.91-1.486a118.658,118.658,0,0,0,16.191-3.823A109.02,109.02,0,0,0-4427-1100.665c1.29-.851,2.571-1.745,3.809-2.609l.1-.069c.531-.371,1.081-.755,1.623-1.128a.247.247,0,0,1,.218-.13.245.245,0,0,1,.082.014l-.222.2a2.621,2.621,0,0,1-.225.344,87.187,87.187,0,0,1-7.121,7.142,91.653,91.653,0,0,1-14.167,10.475,96.131,96.131,0,0,1-17.4,8.18c-.232.081-.413.153-.453.284-.031.1.025.242.182.447,2.347,3.105,4.7,6.234,6.981,9.3a.908.908,0,0,0,.745.389c.025,0,.05,0,.076,0a41.932,41.932,0,0,0,4.743-.341,96.963,96.963,0,0,0,13.317-2.464,93.06,93.06,0,0,0,18.2-6.755,80.1,80.1,0,0,0,15.239-9.893,72.269,72.269,0,0,0,8.389-8.142,1.226,1.226,0,0,0,.329-1.011l-.006-.072,0-.051c-.089-1.08-.182-2.2-.249-3.293-.26-4.155-.717-8.421-1.121-12.184-.408-3.8-.934-7.764-1.609-12.122-1.094-7.014-2.476-14.049-4.107-20.91a223.915,223.915,0,0,0-9.326-29.977,140.863,140.863,0,0,0-11.111-22.9,4.494,4.494,0,0,0-1.29-1.347c-2.686-1.923-5.392-3.682-8.044-5.228A99,99,0,0,0-4456.3-1215.6a81.533,81.533,0,0,0-10.119-1.717,1.071,1.071,0,0,0-.273-.036,1.066,1.066,0,0,0-1.024.759c-.48,1.121-1.055,2.2-1.612,3.249l-.006.012c-.119.226-.151.356-.109.451s.165.162.434.23a129.686,129.686,0,0,1,12.454,3.754,86.468,86.468,0,0,1,14.142,6.57,85.679,85.679,0,0,1,11.355,8.027l.215.179.009.007c1.635,1.357,3.325,2.76,4.9,4.27a.676.676,0,0,1,.082.081c-.02.029-.04.043-.06.043s-.058-.031-.083-.058l0,0a5.88,5.88,0,0,1-.648-.243c-5.1-2.568-10.092-5.055-15.162-7.243a131.532,131.532,0,0,0-17.932-6.32,125.39,125.39,0,0,0-16.583-3.244c-4.445-.568-8.592-.909-12.676-1.044-2.318-.082-4.22-.121-5.985-.121-.779,0-1.544.008-2.273.023-5.222.109-9.505.34-13.48.726-4.139.412-7.872.939-11.412,1.613a123.843,123.843,0,0,0-21.538,6.213c-7.167,2.8-13.924,6.109-20.159,9.269a2.227,2.227,0,0,1-.9.365c-.028.036-.054.067-.083.067s-.039-.014-.06-.043l.086-.081c2.079-1.951,4.41-3.908,7.335-6.16a90.814,90.814,0,0,1,12.318-8,89.505,89.505,0,0,1,14.208-6.066c2.8-.923,5.816-1.764,9.226-2.571.25-.059.375-.125.419-.219s0-.242-.118-.475l-.111-.214c-.522-1.007-1.062-2.049-1.532-3.108A.927.927,0,0,0-4523.947-1217.332Zm58.984,102.8c-.289,0-.583-.008-.875-.023a14.449,14.449,0,0,1-8.832-3.642,18.674,18.674,0,0,1-4.569-5.872,20.585,20.585,0,0,1-1.957-7.182,19.68,19.68,0,0,1,4.488-14.935,14.89,14.89,0,0,1,10.858-5.655c.333-.023.671-.035,1-.035a14.436,14.436,0,0,1,9.784,3.809,18.325,18.325,0,0,1,4.3,5.547,21.01,21.01,0,0,1,2,6.748c.073.576.092,1.149.112,1.755.01.288.021.615.039.95h-.02A19.442,19.442,0,0,1-4453.4-1120,14.867,14.867,0,0,1-4464.963-1114.529Zm-60.753-.016c-.158,0-.318,0-.477-.007a14.421,14.421,0,0,1-6.438-1.659,16.669,16.669,0,0,1-5.1-4.341,19.79,19.79,0,0,1-4.336-12.812h-.021a19.8,19.8,0,0,1,4.509-12.751,16.706,16.706,0,0,1,4.9-4.069,14.676,14.676,0,0,1,6.185-1.68c.275-.014.552-.021.822-.021a14.318,14.318,0,0,1,5.644,1.127,15.987,15.987,0,0,1,4.8,3.246,18.715,18.715,0,0,1,3.962,5.562,20.9,20.9,0,0,1,1.77,6.61,19.808,19.808,0,0,1-3.482,13.8C-4516.266-1116.9-4520.552-1114.546-4525.716-1114.546Z" transform="translate(4644 1292)" fill="#fff"/>
  </g>
</svg>
