<svg xmlns="http://www.w3.org/2000/svg" xmlns:xlink="http://www.w3.org/1999/xlink" width="298" height="298" viewBox="0 0 298 298">
  <defs>
    <clipPath id="clip-tel">
      <rect width="298" height="298"/>
    </clipPath>
  </defs>
  <g id="tel" clip-path="url(#clip-tel)">
    <path id="Subtraction_1" data-name="Subtraction 1" d="M-3757-1007h-132a69.564,69.564,0,0,1-27.247-5.5,69.769,69.769,0,0,1-22.25-15,69.767,69.767,0,0,1-15-22.25A69.563,69.563,0,0,1-3959-1077v-132a69.564,69.564,0,0,1,5.5-27.247,69.769,69.769,0,0,1,15-22.25,69.772,69.772,0,0,1,22.25-15A69.563,69.563,0,0,1-3889-1279h132a69.561,69.561,0,0,1,27.247,5.5,69.771,69.771,0,0,1,22.25,15,69.772,69.772,0,0,1,15,22.25A69.564,69.564,0,0,1-3687-1209v132a69.564,69.564,0,0,1-5.5,27.247,69.77,69.77,0,0,1-15,22.25,69.767,69.767,0,0,1-22.25,15A69.562,69.562,0,0,1-3757-1007Zm-59.512-87.637h0q.695.485,1.35.936l.136.094.01.007c.95.657,1.848,1.278,2.735,1.918,13.317,9.677,26.833,19.472,40.171,29.11,3.533,2.557,6.712,3.854,9.451,3.854a7.545,7.545,0,0,0,5.936-2.824,18.706,18.706,0,0,0,3.574-8.371c10.034-48.4,20.235-97.517,30.32-145.981a10.507,10.507,0,0,1,.807-1.872v-5.05c-2.513-2.868-4.013-4.148-6.257-4.148a16.687,16.687,0,0,0-5.357,1.356c-60.718,22.581-122.334,45.6-183.139,68.41a18.8,18.8,0,0,0-5.041,3.322c-.732.6-1.489,1.224-2.257,1.773v4.216c.788.582,1.56,1.249,2.306,1.894a16.637,16.637,0,0,0,5.229,3.5c12.081,4.019,24.481,7.747,36.474,11.352l.009,0,3.613,1.086a6.272,6.272,0,0,1,4.66,4.639c5.082,15.566,10.385,31.348,15.512,46.611l.025.073,1.18,3.513c1.568,4.662,4.04,7.126,7.148,7.126,2.175,0,4.549-1.2,7.056-3.552,5.382-5.067,10.629-10.026,16.183-15.277l.253-.239.707-.668q3.579-3.384,7.206-6.81Zm-31.942,5.523h0c-.6-1.93-1.2-3.9-1.783-5.869-.769-2.546-1.539-5.1-2.326-7.716-2.765-9.181-5.624-18.675-8.565-28.006-.687-2.172-.317-3.25,1.524-4.437,31.862-20.385,64.165-40.957,96.011-61.145a4.2,4.2,0,0,1,2.224-.46c.29,0,.6.011.872.02l.084,0c.3.011.633.023.956.023.243,0,.457-.007.653-.021-.236.508-.432,1.07-.621,1.613l0,0h0a7.307,7.307,0,0,1-1.645,3.094c-26.569,24.1-53.555,48.453-80.209,72.384-2.186,1.958-3.688,3.962-3.918,7.373-.369,5.442-1.029,10.947-1.667,16.271l0,.018c-.262,2.186-.532,4.446-.78,6.673l-.806.178Z" transform="translate(3972 1292)" fill="#fff"/>
  </g>
</svg>
