<svg xmlns="http://www.w3.org/2000/svg" xmlns:xlink="http://www.w3.org/1999/xlink" width="298" height="298" viewBox="0 0 298 298">
  <defs>
    <clipPath id="clip-twitter">
      <rect width="298" height="298"/>
    </clipPath>
  </defs>
  <g id="twitter" clip-path="url(#clip-twitter)">
    <path id="Subtraction_2" data-name="Subtraction 2" d="M-4093-1007h-132a69.565,69.565,0,0,1-27.248-5.5,69.766,69.766,0,0,1-22.25-15,69.761,69.761,0,0,1-15-22.25A69.554,69.554,0,0,1-4295-1077v-132a69.554,69.554,0,0,1,5.5-27.247,69.758,69.758,0,0,1,15-22.25,69.768,69.768,0,0,1,22.25-15A69.566,69.566,0,0,1-4225-1279h132a69.565,69.565,0,0,1,27.247,5.5,69.772,69.772,0,0,1,22.25,15,69.771,69.771,0,0,1,15,22.25A69.563,69.563,0,0,1-4023-1209v132a69.563,69.563,0,0,1-5.5,27.247,69.773,69.773,0,0,1-15,22.25,69.769,69.769,0,0,1-22.25,15A69.563,69.563,0,0,1-4093-1007Zm-163.36-74.846h0a112.493,112.493,0,0,0,60.955,17.905h.3c71.037,0,113.486-57.7,113.486-113.487,0-1.7,0-3.457-.124-5.186a85.514,85.514,0,0,0,20-20.623,79.882,79.882,0,0,1-22.969,6.175,39.754,39.754,0,0,0,17.537-21.98,78.272,78.272,0,0,1-25.314,9.632,40.08,40.08,0,0,0-29.115-12.6,39.74,39.74,0,0,0-14.671,2.8,39.712,39.712,0,0,0-25.246,37.093,45.154,45.154,0,0,0,.987,9.137,113.6,113.6,0,0,1-23.54-3.7,113.629,113.629,0,0,1-22.018-8.427,113.6,113.6,0,0,1-19.8-12.8,113.556,113.556,0,0,1-16.886-16.814,40,40,0,0,0,12.348,53.345,40.233,40.233,0,0,1-9.314-1.466,40.22,40.22,0,0,1-8.716-3.6v.5a40.009,40.009,0,0,0,31.983,39.146,42.247,42.247,0,0,1-10.5,1.358,50.393,50.393,0,0,1-7.532-.618,39.961,39.961,0,0,0,37.294,27.661,79.713,79.713,0,0,1-23.228,12.661,79.692,79.692,0,0,1-26.085,4.38h-.207l-.609,0A82.668,82.668,0,0,1-4256.36-1081.846Z" transform="translate(4308 1292)" fill="#fff"/>
  </g>
</svg>
